<svg id="visual" viewBox="0 0 900 350" width="900" height="350" xmlns="http://www.w3.org/2000/svg" xmlns:xlink="http://www.w3.org/1999/xlink" version="1.1"><rect x="0" y="0" width="900" height="350" fill="#04d9ff"></rect><path d="M0 122L21.5 120.2C43 118.3 86 114.7 128.8 110.5C171.7 106.3 214.3 101.7 257.2 101.7C300 101.7 343 106.3 385.8 109.7C428.7 113 471.3 115 514.2 117.5C557 120 600 123 642.8 119C685.7 115 728.3 104 771.2 102C814 100 857 107 878.5 110.5L900 114L900 0L878.5 0C857 0 814 0 771.2 0C728.3 0 685.7 0 642.8 0C600 0 557 0 514.2 0C471.3 0 428.7 0 385.8 0C343 0 300 0 257.2 0C214.3 0 171.7 0 128.8 0C86 0 43 0 21.5 0L0 0Z" fill="#000000"></path><path d="M0 83L21.5 85.2C43 87.3 86 91.7 128.8 97.5C171.7 103.3 214.3 110.7 257.2 114.3C300 118 343 118 385.8 114.2C428.7 110.3 471.3 102.7 514.2 99.7C557 96.7 600 98.3 642.8 101.7C685.7 105 728.3 110 771.2 108.5C814 107 857 99 878.5 95L900 91L900 0L878.5 0C857 0 814 0 771.2 0C728.3 0 685.7 0 642.8 0C600 0 557 0 514.2 0C471.3 0 428.7 0 385.8 0C343 0 300 0 257.2 0C214.3 0 171.7 0 128.8 0C86 0 43 0 21.5 0L0 0Z" fill="#6d006a"></path><path d="M0 60L21.5 59.2C43 58.3 86 56.7 128.8 59.7C171.7 62.7 214.3 70.3 257.2 71.3C300 72.3 343 66.7 385.8 65.7C428.7 64.7 471.3 68.3 514.2 66.8C557 65.3 600 58.7 642.8 60.5C685.7 62.3 728.3 72.7 771.2 79C814 85.3 857 87.7 878.5 88.8L900 90L900 0L878.5 0C857 0 814 0 771.2 0C728.3 0 685.7 0 642.8 0C600 0 557 0 514.2 0C471.3 0 428.7 0 385.8 0C343 0 300 0 257.2 0C214.3 0 171.7 0 128.8 0C86 0 43 0 21.5 0L0 0Z" fill="#a3009c"></path><path d="M0 65L21.5 60C43 55 86 45 128.8 39.7C171.7 34.3 214.3 33.7 257.2 33.3C300 33 343 33 385.8 33.5C428.7 34 471.3 35 514.2 40.2C557 45.3 600 54.7 642.8 55.2C685.7 55.7 728.3 47.3 771.2 42C814 36.7 857 34.3 878.5 33.2L900 32L900 0L878.5 0C857 0 814 0 771.2 0C728.3 0 685.7 0 642.8 0C600 0 557 0 514.2 0C471.3 0 428.7 0 385.8 0C343 0 300 0 257.2 0C214.3 0 171.7 0 128.8 0C86 0 43 0 21.5 0L0 0Z" fill="#d007c5"></path><path d="M0 28L21.5 30C43 32 86 36 128.8 34.7C171.7 33.3 214.3 26.7 257.2 22.7C300 18.7 343 17.3 385.8 19.7C428.7 22 471.3 28 514.2 30.3C557 32.7 600 31.3 642.8 32.3C685.7 33.3 728.3 36.7 771.2 34.8C814 33 857 26 878.5 22.5L900 19L900 0L878.5 0C857 0 814 0 771.2 0C728.3 0 685.7 0 642.8 0C600 0 557 0 514.2 0C471.3 0 428.7 0 385.8 0C343 0 300 0 257.2 0C214.3 0 171.7 0 128.8 0C86 0 43 0 21.5 0L0 0Z" fill="#ff10f0"></path></svg>