<svg id="visual" viewBox="0 0 900 350" width="900" height="350" xmlns="http://www.w3.org/2000/svg" xmlns:xlink="http://www.w3.org/1999/xlink" version="1.1"><rect x="0" y="0" width="900" height="350" fill="#04d9ff"></rect><path d="M0 226L21.5 227.8C43 229.7 86 233.3 128.8 237.5C171.7 241.7 214.3 246.3 257.2 246.3C300 246.3 343 241.7 385.8 238.3C428.7 235 471.3 233 514.2 230.5C557 228 600 225 642.8 229C685.7 233 728.3 244 771.2 246C814 248 857 241 878.5 237.5L900 234L900 351L878.5 351C857 351 814 351 771.2 351C728.3 351 685.7 351 642.8 351C600 351 557 351 514.2 351C471.3 351 428.7 351 385.8 351C343 351 300 351 257.2 351C214.3 351 171.7 351 128.8 351C86 351 43 351 21.5 351L0 351Z" fill="#000000"></path><path d="M0 265L21.5 262.8C43 260.7 86 256.3 128.8 250.5C171.7 244.7 214.3 237.3 257.2 233.7C300 230 343 230 385.8 233.8C428.7 237.7 471.3 245.3 514.2 248.3C557 251.3 600 249.7 642.8 246.3C685.7 243 728.3 238 771.2 239.5C814 241 857 249 878.5 253L900 257L900 351L878.5 351C857 351 814 351 771.2 351C728.3 351 685.7 351 642.8 351C600 351 557 351 514.2 351C471.3 351 428.7 351 385.8 351C343 351 300 351 257.2 351C214.3 351 171.7 351 128.8 351C86 351 43 351 21.5 351L0 351Z" fill="#6d006a"></path><path d="M0 288L21.5 288.8C43 289.7 86 291.3 128.8 288.3C171.7 285.3 214.3 277.7 257.2 276.7C300 275.7 343 281.3 385.8 282.3C428.7 283.3 471.3 279.7 514.2 281.2C557 282.7 600 289.3 642.8 287.5C685.7 285.7 728.3 275.3 771.2 269C814 262.7 857 260.3 878.5 259.2L900 258L900 351L878.5 351C857 351 814 351 771.2 351C728.3 351 685.7 351 642.8 351C600 351 557 351 514.2 351C471.3 351 428.7 351 385.8 351C343 351 300 351 257.2 351C214.3 351 171.7 351 128.8 351C86 351 43 351 21.5 351L0 351Z" fill="#a3009c"></path><path d="M0 283L21.5 288C43 293 86 303 128.8 308.3C171.7 313.7 214.3 314.3 257.2 314.7C300 315 343 315 385.8 314.5C428.7 314 471.3 313 514.2 307.8C557 302.7 600 293.3 642.8 292.8C685.7 292.3 728.3 300.7 771.2 306C814 311.3 857 313.7 878.5 314.8L900 316L900 351L878.5 351C857 351 814 351 771.2 351C728.3 351 685.7 351 642.8 351C600 351 557 351 514.2 351C471.3 351 428.7 351 385.8 351C343 351 300 351 257.2 351C214.3 351 171.7 351 128.8 351C86 351 43 351 21.5 351L0 351Z" fill="#d007c5"></path><path d="M0 320L21.5 318C43 316 86 312 128.8 313.3C171.7 314.7 214.3 321.3 257.2 325.3C300 329.3 343 330.7 385.8 328.3C428.7 326 471.3 320 514.2 317.7C557 315.3 600 316.7 642.8 315.7C685.7 314.7 728.3 311.3 771.2 313.2C814 315 857 322 878.5 325.5L900 329L900 351L878.5 351C857 351 814 351 771.2 351C728.3 351 685.7 351 642.8 351C600 351 557 351 514.2 351C471.3 351 428.7 351 385.8 351C343 351 300 351 257.2 351C214.3 351 171.7 351 128.8 351C86 351 43 351 21.5 351L0 351Z" fill="#ff10f0"></path></svg>