
<svg id="visual" viewBox="0 0 900 300" width="900" height="300" xmlns="http://www.w3.org/2000/svg" xmlns:xlink="http://www.w3.org/1999/xlink" version="1.1"><path d="M0 179L129 185L257 188L386 215L514 203L643 207L771 206L900 182L900 301L771 301L643 301L514 301L386 301L257 301L129 301L0 301Z" fill="#00ccff"></path><path d="M0 229L129 229L257 203L386 199L514 235L643 222L771 229L900 212L900 301L771 301L643 301L514 301L386 301L257 301L129 301L0 301Z" fill="#669df2"></path><path d="M0 253L129 222L257 239L386 219L514 250L643 231L771 248L900 236L900 301L771 301L643 301L514 301L386 301L257 301L129 301L0 301Z" fill="#a464b9"></path><path d="M0 270L129 266L257 258L386 266L514 257L643 253L771 247L900 249L900 301L771 301L643 301L514 301L386 301L257 301L129 301L0 301Z" fill="#b02861"></path><path d="M0 268L129 270L257 272L386 280L514 276L643 276L771 273L900 266L900 301L771 301L643 301L514 301L386 301L257 301L129 301L0 301Z" fill="#871400"></path></svg>